<svg width="1200" height="430" viewBox="0 0 1200 430" fill="none" xmlns="http://www.w3.org/2000/svg">
  <defs>
    <linearGradient id="bg" x1="0" y1="0" x2="1200" y2="430" gradientUnits="userSpaceOnUse">
      <stop stop-color="#07111F"/><stop offset="0.5" stop-color="#0A0F1A"/><stop offset="1" stop-color="#07111F"/>
    </linearGradient>
    <linearGradient id="cyan" x1="120" y1="0" x2="1050" y2="0"><stop stop-color="#38BDF8"/><stop offset="0.5" stop-color="#A78BFA"/><stop offset="1" stop-color="#22D3EE"/></linearGradient>
    <filter id="glow"><feGaussianBlur stdDeviation="6" result="b"/><feMerge><feMergeNode in="b"/><feMergeNode in="SourceGraphic"/></feMerge></filter>
  </defs>
  <rect width="1200" height="430" rx="26" fill="url(#bg)"/>
  <rect x="1" y="1" width="1198" height="428" rx="25" stroke="#263244"/>
  <circle cx="38" cy="34" r="7" fill="#FF5F57"/><circle cx="62" cy="34" r="7" fill="#FEBC2E"/><circle cx="86" cy="34" r="7" fill="#28C840"/>
  <text x="120" y="40" fill="#7E8A9A" font-family="ui-monospace,SFMono-Regular,Menlo,monospace" font-size="18">YASH.EXE / PROFILE</text>
  <text x="1065" y="40" fill="#38BDF8" font-family="ui-monospace,SFMono-Regular,Menlo,monospace" font-size="16">ONLINE</text>
  <circle cx="1043" cy="34" r="5" fill="#22C55E"><animate attributeName="opacity" values="1;.25;1" dur="1.3s" repeatCount="indefinite"/></circle>
  <path d="M70 82H1130" stroke="#1F2A3A"/>
  <text x="70" y="128" fill="#65758B" font-family="ui-monospace,SFMono-Regular,Menlo,monospace" font-size="18">01 / HELLO, WORLD</text>
  <text x="70" y="220" fill="url(#cyan)" filter="url(#glow)" font-family="Inter,Arial,sans-serif" font-size="82" font-weight="800" letter-spacing="5">YASH YADAV</text>
  <rect x="70" y="244" width="740" height="3" fill="url(#cyan)"><animate attributeName="width" values="0;740;740" dur="2.4s" repeatCount="indefinite"/></rect>
  <text x="70" y="292" fill="#D6DEEA" font-family="ui-monospace,SFMono-Regular,Menlo,monospace" font-size="24">SOFTWARE / AI / BACKEND / SYSTEMS</text>
  <text x="70" y="337" fill="#7E8A9A" font-family="ui-monospace,SFMono-Regular,Menlo,monospace" font-size="18">building useful things, weird things, and things with a brain.</text>
  <g font-family="ui-monospace,SFMono-Regular,Menlo,monospace" font-size="16" font-weight="700">
    <rect x="70" y="365" width="150" height="38" rx="19" fill="#101A28" stroke="#38BDF8"/><text x="98" y="390" fill="#38BDF8">[ CODE ]</text>
    <rect x="234" y="365" width="160" height="38" rx="19" fill="#101A28" stroke="#A78BFA"/><text x="257" y="390" fill="#C4B5FD">[ BUILDS ]</text>
    <rect x="408" y="365" width="140" height="38" rx="19" fill="#101A28" stroke="#22D3EE"/><text x="435" y="390" fill="#67E8F9">[ PLAY ]</text>
  </g>
  <g opacity="0.9">
    <rect x="925" y="115" width="205" height="205" rx="26" fill="#0D1725" stroke="#263244"/>
    <circle cx="1027" cy="196" r="54" stroke="#38BDF8" stroke-width="3" stroke-dasharray="12 10"><animateTransform attributeName="transform" type="rotate" from="0 1027 196" to="360 1027 196" dur="9s" repeatCount="indefinite"/></circle>
    <circle cx="1027" cy="196" r="34" fill="#111D2B" stroke="#A78BFA"/>
    <text x="975" y="205" fill="#EAF2FF" font-family="ui-monospace,SFMono-Regular,Menlo,monospace" font-size="18">AI CORE</text>
    <path d="M950 276H1105" stroke="#263244"/>
    <text x="953" y="300" fill="#7E8A9A" font-family="ui-monospace,SFMono-Regular,Menlo,monospace" font-size="13">status: building</text>
  </g>
</svg>